HIERARCHY
ROOT hip
{
	OFFSET 0.000000 0.000000 0.000000
	CHANNELS 6 Xposition Yposition Zposition Xrotation Zrotation Yrotation 
	JOINT abdomen
	{
		OFFSET 0.000000 3.422050 0.000000
		CHANNELS 3 Xrotation Zrotation Yrotation 
		JOINT chest
		{
			OFFSET 0.000000 8.486693 -0.684411
			CHANNELS 3 Xrotation Zrotation Yrotation 
			JOINT neck
			{
				OFFSET 0.000000 10.266162 -0.273764
				CHANNELS 3 Xrotation Zrotation Yrotation 
				JOINT head
				{
					OFFSET 0.000000 3.148285 0.000000
					CHANNELS 3 Xrotation Zrotation Yrotation 
					End Site
					{
						OFFSET 0.000000 3.148289 0.000000
					}
				}
			}
			JOINT lCollar
			{
				OFFSET 3.422053 6.707223 -0.821293
				CHANNELS 3 Yrotation Zrotation Xrotation 
				JOINT lShldr
				{
					OFFSET 3.285171 0.000000 0.000000
					CHANNELS 3 Zrotation Yrotation Xrotation 
					JOINT lForeArm
					{
						OFFSET 10.129278 0.000000 0.000000
						CHANNELS 3 Yrotation Zrotation Xrotation 
						JOINT lHand
						{
							OFFSET 8.486692 0.000000 0.000000
							CHANNELS 3 Zrotation Yrotation Xrotation 
							End Site
							{
								OFFSET 4.106464 0.000000 0.000000
							}
						}
					}
				}
			}
			JOINT rCollar
			{
				OFFSET -3.558935 6.707223 -0.821293
				CHANNELS 3 Yrotation Zrotation Xrotation 
				JOINT rShldr
				{
					OFFSET -3.148289 0.000000 0.000000
					CHANNELS 3 Zrotation Yrotation Xrotation 
					JOINT rForeArm
					{
						OFFSET -10.266159 0.000000 0.000000
						CHANNELS 3 Yrotation Zrotation Xrotation 
						JOINT rHand
						{
							OFFSET -8.349810 0.000000 0.000000
							CHANNELS 3 Zrotation Yrotation Xrotation 
							End Site
							{
								OFFSET -4.106464 0.000000 0.000000
							}
						}
					}
				}
			}
		}
	}
	JOINT lThigh
	{
		OFFSET 5.338403 -1.642589 1.368821
		CHANNELS 3 Xrotation Zrotation Yrotation 
		JOINT lShin
		{
			OFFSET -2.053232 -20.121670 0.000000
			CHANNELS 3 Xrotation Zrotation Yrotation 
			JOINT lFoot
			{
				OFFSET 0.000000 -19.300380 -1.231939
				CHANNELS 3 Xrotation Yrotation Zrotation 
				End Site
				{
					OFFSET 0.000000 -2.463878 4.653993
				}
			}
		}
	}
	JOINT rThigh
	{
		OFFSET -5.338403 -1.642589 1.368821
		CHANNELS 3 Xrotation Zrotation Yrotation 
		JOINT rShin
		{
			OFFSET 2.053232 -20.121670 0.000000
			CHANNELS 3 Xrotation Zrotation Yrotation 
			JOINT rFoot
			{
				OFFSET 0.000000 -19.300380 -1.231939
				CHANNELS 3 Xrotation Yrotation Zrotation 
				End Site
				{
					OFFSET 0.000000 -2.463878 4.653993
				}
			}
		}
	}
}
MOTION
Frames: 6
Frame Time: 0.049897
0.000000 7.522690 0.000000 -107.044266 0.433090 -1.982836 22.496990 -2.852024 -1.143346 12.327592 0.540641 -4.140670 12.907615 -18.176479 0.316006 -5.426454 -0.679295 -2.178888 -23.300150 23.063793 13.464258 -58.716507 -35.811916 42.665154 -36.808605 22.747406 -22.860554 -7.647670 -23.389147 -31.918703 23.258898 -23.104841 13.478881 83.891281 25.364422 41.405056 40.409111 -21.536671 -0.521367 10.589826 34.534386 -66.404129 -14.397197 -0.360581 -9.456161 87.712578 -0.634395 -0.679880 30.422148 -5.275944 -2.913287 -14.397492 0.356688 9.453128 87.712517 0.634297 0.674935 30.422291 5.271649 2.910818 
0.000000 7.522690 0.000000 -107.044266 0.433090 -1.982836 22.496990 -2.852024 -1.143346 12.327592 0.540641 -4.140670 12.953139 -18.306543 0.311461 -5.426454 -0.679295 -2.178888 -23.300150 23.063793 13.464258 -58.849766 -35.759258 42.890373 -36.835308 23.081274 -22.911520 -7.689880 -23.456396 -32.140411 23.258898 -23.104841 13.478881 83.831078 25.339523 41.615414 40.490013 -21.876032 -0.674468 10.589825 34.534382 -66.404129 -14.397197 -0.360581 -9.456161 87.712578 -0.634395 -0.679880 30.422144 -5.275944 -2.913287 -14.397492 0.356688 9.453128 87.712517 0.634297 0.674935 30.422291 5.271649 2.910818 
0.000000 7.522690 0.000000 -107.044266 0.433090 -1.982836 22.496990 -2.852024 -1.143346 12.327592 0.540641 -4.140670 12.998705 -18.436579 0.306803 -5.426454 -0.679295 -2.178888 -23.300150 23.063793 13.464258 -58.982716 -35.706161 43.115353 -36.861782 23.415442 -22.962488 -7.731848 -23.523827 -32.362282 23.258898 -23.104841 13.478881 83.770760 25.314810 41.825848 40.570217 -22.215971 -0.827585 10.589825 34.534382 -66.404129 -14.397197 -0.360581 -9.456161 87.712578 -0.634395 -0.679880 30.422144 -5.275944 -2.913287 -14.397492 0.356688 9.453128 87.712517 0.634297 0.674935 30.422291 5.271649 2.910818 
0.000000 7.522690 0.000000 -107.044266 0.433090 -1.982836 22.496990 -2.852024 -1.143346 12.327592 0.540641 -4.140670 13.044308 -18.566595 0.302034 -5.426455 -0.679295 -2.178888 -23.300150 23.063793 13.464258 -59.115337 -35.652626 43.340080 -36.888020 23.749899 -23.013453 -7.773569 -23.591433 -32.584297 23.258898 -23.104841 13.478881 83.710335 25.290289 42.036362 40.649719 -22.556473 -0.980731 10.589825 34.534382 -66.404129 -14.397197 -0.360581 -9.456161 87.712578 -0.634395 -0.679880 30.422144 -5.275944 -2.913287 -14.397492 0.356688 9.453128 87.712517 0.634297 0.674935 30.422291 5.271649 2.910818 
0.000000 7.522690 0.000000 -107.044266 0.433090 -1.982836 22.496990 -2.852024 -1.143346 12.327592 0.540641 -4.140670 13.089950 -18.696589 0.297152 -5.426454 -0.679295 -2.178888 -23.300150 23.063793 13.464258 -59.247665 -35.598667 43.564579 -36.914013 24.084642 -23.064428 -7.815043 -23.659216 -32.806473 23.258898 -23.104841 13.478881 83.649803 25.265955 42.246944 40.728512 -22.897533 -1.133907 10.589825 34.534382 -66.404129 -14.397197 -0.360581 -9.456161 87.712578 -0.634395 -0.679880 30.422144 -5.275944 -2.913287 -14.397492 0.356688 9.453128 87.712517 0.634297 0.674935 30.422291 5.271649 2.910818 
0.000000 7.522690 0.000000 -107.044266 0.433090 -1.982836 22.496990 -2.852024 -1.143346 12.327592 0.540641 -4.140670 13.135631 -18.826555 0.292159 -5.426454 -0.679295 -2.178888 -23.300150 23.063793 13.464258 -59.379650 -35.544262 43.788799 -36.939777 24.419674 -23.115414 -7.856270 -23.727179 -33.028809 23.258898 -23.104841 13.478881 83.589142 25.241812 42.457592 40.806602 -23.239147 -1.287122 10.589825 34.534382 -66.404129 -14.397197 -0.360581 -9.456161 87.712578 -0.634395 -0.679880 30.422144 -5.275944 -2.913287 -14.397492 0.356688 9.453128 87.712517 0.634297 0.674935 30.422291 5.271649 2.910818 
